<svg width="38" height="66" viewBox="0 0 38 66" fill="none" xmlns="http://www.w3.org/2000/svg">
<path d="M21.5 3C21.5 1.61929 20.3807 0.5 19 0.5C17.6193 0.5 16.5 1.61929 16.5 3L21.5 3ZM17.2322 64.7678C18.2085 65.7441 19.7915 65.7441 20.7678 64.7678L36.6777 48.8579C37.654 47.8816 37.654 46.2986 36.6777 45.3223C35.7014 44.346 34.1184 44.346 33.1421 45.3223L19 59.4645L4.85786 45.3223C3.88155 44.346 2.29864 44.346 1.32233 45.3223C0.346018 46.2986 0.346018 47.8816 1.32233 48.8579L17.2322 64.7678ZM16.5 3L16.5 63L21.5 63L21.5 3L16.5 3Z" fill="black"/>
</svg>
