<svg width="30" height="30" viewBox="0 0 30 30" fill="none" xmlns="http://www.w3.org/2000/svg">
<circle cx="15" cy="15" r="15" fill="#FEA744"/>
<path d="M6 14C5.44772 14 5 14.4477 5 15C5 15.5523 5.44772 16 6 16L6 14ZM23.7071 15.7071C24.0976 15.3166 24.0976 14.6834 23.7071 14.2929L17.3431 7.92893C16.9526 7.53841 16.3195 7.53841 15.9289 7.92893C15.5384 8.31946 15.5384 8.95262 15.9289 9.34315L21.5858 15L15.9289 20.6569C15.5384 21.0474 15.5384 21.6805 15.9289 22.0711C16.3195 22.4616 16.9526 22.4616 17.3431 22.0711L23.7071 15.7071ZM6 16L23 16L23 14L6 14L6 16Z" fill="black"/>
</svg>
